{
  "accessors": [
    {
      "bufferView": 2,
      "componentType": 5126,
      "count": 790,
      "max": [
        1.9650118350982666,
        14.447032928466797,
        0.20502710342407227
      ],
      "min": [
        -2.216836452484131,
        1.1836026906967163,
        -0.47701364755630493
      ],
      "type": "VEC3"
    },
    {
      "bufferView": 2,
      "byteOffset": 9480,
      "componentType": 5126,
      "count": 790,
      "max": [
        0.9997513294219971,
        1.0,
        1.0
      ],
      "min": [
        -0.9996983408927917,
        -1.0,
        -1.0
      ],
      "type": "VEC3"
    },
    {
      "bufferView": 1,
      "componentType": 5126,
      "count": 790,
      "max": [
        0.9958945512771606,
        0.9931282997131348
      ],
      "min": [
        0.013243919238448143,
        0.008368205279111862
      ],
      "type": "VEC2"
    },
    {
      "bufferView": 0,
      "componentType": 5125,
      "count": 2808,
      "type": "SCALAR"
    },
    {
      "bufferView": 2,
      "byteOffset": 18960,
      "componentType": 5126,
      "count": 158,
      "max": [
        0.9948567748069763,
        11.347030639648438,
        0.8401249051094055
      ],
      "min": [
        -0.9403491020202637,
        1.6540555953979492,
        -0.8401248455047607
      ],
      "type": "VEC3"
    },
    {
      "bufferView": 2,
      "byteOffset": 20856,
      "componentType": 5126,
      "count": 158,
      "max": [
        1.0,
        1.0,
        1.0
      ],
      "min": [
        -1.0,
        -1.0,
        -1.0
      ],
      "type": "VEC3"
    },
    {
      "bufferView": 1,
      "byteOffset": 6320,
      "componentType": 5126,
      "count": 158,
      "max": [
        0.541705310344696,
        0.8871026039123535
      ],
      "min": [
        0.21457791328430176,
        0.28362321853637695
      ],
      "type": "VEC2"
    },
    {
      "bufferView": 0,
      "byteOffset": 11232,
      "componentType": 5125,
      "count": 672,
      "type": "SCALAR"
    },
    {
      "bufferView": 2,
      "byteOffset": 22752,
      "componentType": 5126,
      "count": 726,
      "max": [
        1.0472755432128906,
        12.930471420288086,
        0.23865030705928802
      ],
      "min": [
        -0.745652973651886,
        9.590627670288086,
        -0.18971827626228333
      ],
      "type": "VEC3"
    },
    {
      "bufferView": 2,
      "byteOffset": 31464,
      "componentType": 5126,
      "count": 726,
      "max": [
        0.0,
        0.0,
        1.0
      ],
      "min": [
        0.0,
        0.0,
        1.0
      ],
      "type": "VEC3"
    },
    {
      "bufferView": 1,
      "byteOffset": 7584,
      "componentType": 5126,
      "count": 726,
      "max": [
        0.9919768571853638,
        0.9841722249984741
      ],
      "min": [
        0.024318605661392212,
        0.0021245479583740234
      ],
      "type": "VEC2"
    },
    {
      "bufferView": 0,
      "byteOffset": 13920,
      "componentType": 5125,
      "count": 3600,
      "type": "SCALAR"
    }
  ],
  "asset": {
    "extras": {
      "author": "reinard.baertsoen (https://sketchfab.com/reinard.baertsoen)",
      "license": "CC-BY-4.0 (http://creativecommons.org/licenses/by/4.0/)",
      "source": "https://sketchfab.com/3d-models/magical-elven-staff-wow-4b05be75a48a4c5b8ff6e3a4e773a3fa",
      "title": "Magical Elven Staff (WoW)"
    },
    "generator": "Sketchfab-12.64.0",
    "version": "2.0"
  },
  "bufferViews": [
    {
      "buffer": 0,
      "byteLength": 28320,
      "name": "floatBufferViews",
      "target": 34963
    },
    {
      "buffer": 0,
      "byteLength": 13392,
      "byteOffset": 28320,
      "byteStride": 8,
      "name": "floatBufferViews",
      "target": 34962
    },
    {
      "buffer": 0,
      "byteLength": 40176,
      "byteOffset": 41712,
      "byteStride": 12,
      "name": "floatBufferViews",
      "target": 34962
    }
  ],
  "buffers": [
    {
      "byteLength": 81888,
      "uri": "scene.bin"
    }
  ],
  "images": [
    {
      "uri": "textures/Weapon_T_baseColor.png"
    },
    {
      "uri": "textures/Effect_T1_baseColor.png"
    }
  ],
  "materials": [
    {
      "doubleSided": true,
      "name": "Weapon_T",
      "pbrMetallicRoughness": {
        "baseColorTexture": {
          "index": 0
        },
        "metallicFactor": 0.0
      }
    },
    {
      "alphaMode": "BLEND",
      "doubleSided": true,
      "emissiveFactor": [
        1.0,
        1.0,
        1.0
      ],
      "emissiveTexture": {
        "index": 0
      },
      "name": "Orbs_T",
      "pbrMetallicRoughness": {
        "baseColorFactor": [
          1.0,
          1.0,
          1.0,
          0.8650946378952873
        ],
        "baseColorTexture": {
          "index": 0
        },
        "metallicFactor": 0.0
      }
    },
    {
      "alphaMode": "BLEND",
      "doubleSided": true,
      "emissiveFactor": [
        1.0,
        0.0,
        1.0
      ],
      "name": "Effect_T1",
      "pbrMetallicRoughness": {
        "baseColorFactor": [
          1.0,
          1.0,
          1.0,
          0.1841152436021378
        ],
        "baseColorTexture": {
          "index": 1
        },
        "metallicFactor": 0.0
      }
    }
  ],
  "meshes": [
    {
      "name": "Weapon_Weapon_T_0",
      "primitives": [
        {
          "attributes": {
            "NORMAL": 1,
            "POSITION": 0,
            "TEXCOORD_0": 2
          },
          "indices": 3,
          "material": 0,
          "mode": 4
        }
      ]
    },
    {
      "name": "Weapon_Orbs_T_0",
      "primitives": [
        {
          "attributes": {
            "NORMAL": 5,
            "POSITION": 4,
            "TEXCOORD_0": 6
          },
          "indices": 7,
          "material": 1,
          "mode": 4
        }
      ]
    },
    {
      "name": "Weapon_Effect_T1_0",
      "primitives": [
        {
          "attributes": {
            "NORMAL": 9,
            "POSITION": 8,
            "TEXCOORD_0": 10
          },
          "indices": 11,
          "material": 2,
          "mode": 4
        }
      ]
    }
  ],
  "nodes": [
    {
      "children": [
        1
      ],
      "matrix": [
        1.0,
        0.0,
        0.0,
        0.0,
        0.0,
        2.220446049250313e-16,
        -1.0,
        0.0,
        0.0,
        1.0,
        2.220446049250313e-16,
        0.0,
        0.0,
        0.0,
        0.0,
        1.0
      ],
      "name": "Sketchfab_model"
    },
    {
      "children": [
        2
      ],
      "matrix": [
        1.0,
        0.0,
        0.0,
        0.0,
        0.0,
        0.0,
        1.0,
        0.0,
        0.0,
        -1.0,
        0.0,
        0.0,
        0.0,
        0.0,
        0.0,
        1.0
      ],
      "name": "67d6fece78db4254bcc50e14b312ce89.fbx"
    },
    {
      "children": [
        3
      ],
      "name": "RootNode"
    },
    {
      "children": [
        4,
        5,
        6
      ],
      "name": "Weapon"
    },
    {
      "mesh": 0,
      "name": "Weapon_Weapon_T_0"
    },
    {
      "mesh": 1,
      "name": "Weapon_Orbs_T_0"
    },
    {
      "mesh": 2,
      "name": "Weapon_Effect_T1_0"
    }
  ],
  "samplers": [
    {
      "magFilter": 9729,
      "minFilter": 9987,
      "wrapS": 10497,
      "wrapT": 10497
    }
  ],
  "scene": 0,
  "scenes": [
    {
      "name": "Sketchfab_Scene",
      "nodes": [
        0
      ]
    }
  ],
  "textures": [
    {
      "sampler": 0,
      "source": 0
    },
    {
      "sampler": 0,
      "source": 1
    }
  ]
}
